<?xml version="1.0" encoding="utf-8"?>
<!-- Generator: Adobe Illustrator 15.1.0, SVG Export Plug-In . SVG Version: 6.00 Build 0)  -->
<!DOCTYPE svg PUBLIC "-//W3C//DTD SVG 1.1//EN" "http://www.w3.org/Graphics/SVG/1.1/DTD/svg11.dtd">
<svg version="1.1" id="Layer_1_copy" xmlns="http://www.w3.org/2000/svg" xmlns:xlink="http://www.w3.org/1999/xlink" x="0px"
	 y="0px" width="547px" height="547px" viewBox="0 0 547 547" enable-background="new 0 0 547 547" xml:space="preserve">
<g display="none">
	<path display="inline" fill="none" stroke="#000000" stroke-width="13" stroke-miterlimit="10" d="M232.323,240.134
		c12.208,5.127,59.897,26.049,59.897,47.28c0,23.182-25.452,21.437-25.452,42.519c0,19.4,25.452,21.549,25.452,43.488
		c0,18.16-25.452,19.579-25.452,44.685"/>
	<path display="inline" fill="none" stroke="#000000" stroke-width="13" stroke-miterlimit="10" d="M326.664,240.134
		c-12.207,5.127-59.896,25.569-59.896,47.28c0,23.182,25.452,21.437,25.452,42.519c0,20.066-25.452,21.549-25.452,43.488
		c0,17.16,25.607,20.582,25.452,44.813"/>
</g>
<g>
	<g>
		<g>
			<path d="M76.199,484.338h6.298l9.895,25.271l0.128,2.293v-27.564h6.554v43.453h-6.168l-10.024-25.207h-0.129v25.207h-6.555
				V484.338z"/>
		</g>
		<g>
			<path d="M117.837,484.338h19.535v6.168h-12.979v13.43h11.309v6.168h-11.309v11.139h12.979v6.549h-19.535V484.338z"/>
		</g>
		<g>
			<path d="M158.769,490.506h-7.582v-6.168h21.718v6.168h-7.582v37.285h-6.554V490.506z"/>
		</g>
		<g>
			<path d="M186.528,522.01l12.337-31.504H187.17v-6.168h18.827v5.203l-12.594,32.084h12.594v6.166h-19.47V522.01z"/>
		</g>
		<g>
			<path d="M222.896,484.338h19.535v6.168h-12.979v13.877h11.309v6.172h-11.309v17.236h-6.556V484.338z"/>
		</g>
		<g>
			<path d="M259.524,484.338h10.537c7.775,0,11.568,4.564,11.568,13.43c0,5.27-1.479,9.123-5.657,11.438l7.069,18.586h-6.939
				l-6.104-17.236h-3.92v17.236h-6.554V484.338z M266.079,504.773h3.727c4.562,0,5.268-2.574,5.268-7.137
				c0-4.625-0.77-7.131-5.591-7.131h-3.403V504.773z"/>
		</g>
		<g>
			<path d="M299.747,484.338h19.536v6.168h-12.978v13.43h11.31v6.168h-11.31v11.139h12.978v6.549h-19.536V484.338z"/>
		</g>
		<g>
			<path d="M336.567,484.338h6.554v43.453h-6.554V484.338z"/>
		</g>
		<g>
			<path d="M362.338,484.338h6.553v19.598h8.095v-19.598h6.555v43.453h-6.555v-18.072h-8.095v18.072h-6.553V484.338z"/>
		</g>
		<g>
			<path d="M402.563,484.338h19.533v6.168h-12.981v13.43h11.31v6.168h-11.31v11.139h12.981v6.549h-19.533V484.338z"/>
		</g>
		<g>
			<path d="M439.38,484.338h6.556v43.453h-6.556V484.338z"/>
		</g>
		<g>
			<path d="M469.451,490.506h-7.582v-6.168h21.718v6.168h-7.58v37.285h-6.556V490.506z"/>
		</g>
	</g>
	<path d="M235.717,235.396l1.135-2.486c0,0-1.757-1.755-4.638-4.567l-2.017,4.417l-0.661,1.449l-3.506-1.599l0.675-1.48l2.572-5.636
		c-1.125-1.086-2.341-2.256-3.643-3.499l-3.26,7.142l-0.682,1.494l-3.509-1.602l0.678-1.486l3.815-8.356
		c-1.181-1.114-2.4-2.261-3.661-3.436l-4.493,9.843l-0.505,1.109l-3.507-1.601l0.491-1.074l5.037-11.037
		c-1.215-1.119-2.447-2.246-3.695-3.378l-5.722,12.54l-0.443,0.971l-3.507-1.597l0.381-0.837l6.287-13.778
		c-1.245-1.112-2.491-2.214-3.736-3.301l-6.977,15.293l-0.292,0.642l-3.508-1.6l0.259-0.566l7.478-16.394
		c-7.803-6.665-15.141-12.32-19.737-14.417c-14.11-6.438-87.036-39.715-87.036-39.715l-0.55,1.205l-1.169-0.533l-6.967,15.267
		l-2.008-0.883l-8.025,18.377l1.693,0.784l-6.791,14.88l1.17,0.535l-0.687,1.504c0,0,72.627,33.14,87.032,39.713
		c4.67,2.131,13.709,3.998,23.786,5.549L191,226.337l3.506,1.601l-7.26,15.906c1.635,0.233,3.281,0.458,4.933,0.676l6.641-14.551
		l0.022-0.05l3.509,1.6l-0.252,0.552l-5.914,12.958c1.671,0.208,3.329,0.404,4.968,0.592l5.116-11.212l0.416-0.911l3.507,1.597
		l-0.511,1.12l-4.498,9.856c1.729,0.188,3.408,0.364,5.037,0.531l3.733-8.182l0.607-1.33l3.51,1.604l-0.671,1.469l-3.123,6.842
		c1.788,0.173,3.466,0.33,5.021,0.471l2.364-5.18l0.742-1.626l3.506,1.596l-0.797,1.747l-1.743,3.822
		c3.98,0.34,6.437,0.519,6.437,0.519l0.746-1.638 M78.873,179.539l6.746-15.743l2.843,1.342l0.006-0.013l0.325,0.158l10.784,5.258
		l36.487,17.784l0.672,0.329l-5.822,13.733L78.873,179.539z M146.766,227.257l-71.387-32.575l0.71-1.556l10.91,4.979l1.068-2.338
		l-10.911-4.979l1.46-3.2l10.911,4.977l1.067-2.339l-10.911-4.977l1.387-3.037l10.91,4.979l0.296-0.65l39.712,18.837l8.111-18.367
		l-39.964-17.69l0.359-0.786l-10.913-4.978l1.461-3.203l10.914,4.979l1.068-2.339l-10.915-4.979l1.461-3.201l10.913,4.981
		l1.066-2.339l-10.911-4.98l0.704-1.543l71.387,32.576L146.766,227.257z"/>
	<g>
		<path d="M328.391,246.716l0.748,1.638c0,0,2.455-0.179,6.435-0.519l-1.741-3.822l-0.798-1.747l3.508-1.596l0.739,1.626l2.363,5.18
			c1.557-0.141,3.232-0.297,5.024-0.471l-3.121-6.842l-0.673-1.469l3.508-1.604l0.607,1.33l3.734,8.182
			c1.626-0.167,3.309-0.343,5.035-0.531l-4.498-9.856l-0.507-1.12l3.504-1.597l0.416,0.911l5.116,11.212
			c1.641-0.188,3.297-0.385,4.969-0.592l-5.912-12.958l-0.252-0.552l3.508-1.6l0.021,0.05l6.642,14.551
			c1.65-0.218,3.297-0.442,4.934-0.676l-7.263-15.906l3.508-1.601l7.726,16.917c10.074-1.551,19.113-3.418,23.783-5.549
			c14.405-6.573,87.033-39.713,87.033-39.713l-0.688-1.504l1.17-0.535l-6.786-14.88l1.69-0.784l-8.025-18.377l-2.008,0.883
			l-6.967-15.267l-1.17,0.533l-0.548-1.205c0,0-72.929,33.277-87.038,39.715c-4.593,2.097-11.932,7.752-19.737,14.417l7.479,16.394
			l0.257,0.566l-3.505,1.6l-0.296-0.642l-6.977-15.293c-1.244,1.087-2.49,2.188-3.734,3.301l6.289,13.778l0.382,0.837l-3.508,1.597
			l-0.443-0.971l-5.721-12.54c-1.251,1.132-2.48,2.259-3.695,3.378l5.034,11.037l0.492,1.074l-3.508,1.601l-0.508-1.109
			l-4.493-9.843c-1.259,1.175-2.479,2.322-3.658,3.436l3.815,8.356l0.677,1.486l-3.509,1.602l-0.683-1.494l-3.257-7.142
			c-1.301,1.243-2.52,2.413-3.645,3.499l2.575,5.636l0.673,1.48l-3.504,1.599l-0.663-1.449l-2.017-4.417
			c-2.883,2.812-4.639,4.567-4.639,4.567l1.134,2.486 M459.364,170.542l10.788-5.258l0.32-0.158l0.011,0.013l2.842-1.342
			l6.745,15.743l-52.042,22.849l-5.822-13.733l0.673-0.329 M412.176,227.257l-19.962-43.75l71.388-32.576l0.703,1.543l-10.908,4.98
			l1.065,2.339l10.912-4.981l1.461,3.201l-10.913,4.979l1.063,2.339l10.918-4.979l1.461,3.203l-10.913,4.978l0.357,0.786
			l-39.966,17.69l8.112,18.367l39.714-18.837l0.296,0.65l10.907-4.979l1.391,3.037l-10.913,4.977l1.064,2.339l10.913-4.977
			l1.461,3.2l-10.913,4.979l1.068,2.338l10.913-4.979l0.708,1.556"/>
	</g>
	<g>
		<g>
			<defs>
				<polygon id="SVGID_1_" points="463.371,-49 277.317,211.484 91.265,-49 				"/>
			</defs>
			<clipPath id="SVGID_2_">
				<use xlink:href="#SVGID_1_"  overflow="visible"/>
			</clipPath>
			<g clip-path="url(#SVGID_2_)">
				<g>
					<path d="M277.194,300.793c-50.219,0-91.074-40.855-91.074-91.072c0-50.215,40.854-91.069,91.074-91.069
						c50.215,0,91.066,40.854,91.066,91.069C368.261,259.938,327.409,300.793,277.194,300.793z M277.194,146.922
						c-34.631,0-62.804,28.172-62.804,62.799c0,34.628,28.173,62.801,62.804,62.801c34.627,0,62.797-28.173,62.797-62.801
						C339.991,175.094,311.821,146.922,277.194,146.922z"/>
					<path d="M277.197,351.846c-78.371,0-142.13-63.756-142.13-142.125c0-78.367,63.759-142.123,142.13-142.123
						c78.364,0,142.118,63.755,142.118,142.123C419.314,288.09,355.561,351.846,277.197,351.846z M277.197,95.869
						c-62.783,0-113.86,51.074-113.86,113.853c0,62.781,51.077,113.855,113.86,113.855c62.777,0,113.847-51.075,113.847-113.855
						C391.044,146.942,339.974,95.869,277.197,95.869z"/>
					<path d="M277.197,402.899c-106.521,0-193.184-86.659-193.184-193.178c0-106.518,86.662-193.176,193.184-193.176
						c106.514,0,193.171,86.658,193.171,193.176C470.368,316.24,383.711,402.899,277.197,402.899z M277.197,44.815
						c-90.933,0-164.914,73.977-164.914,164.906c0,90.931,73.98,164.909,164.914,164.909c90.926,0,164.902-73.978,164.902-164.909
						C442.099,118.792,368.123,44.815,277.197,44.815z"/>
				</g>
			</g>
		</g>
		<path d="M299.378,209.096c0,11.716-9.497,21.211-21.215,21.211c-11.71,0-21.21-9.496-21.21-21.211
			c0-11.715,9.5-21.212,21.21-21.212C289.881,187.884,299.378,197.381,299.378,209.096z"/>
	</g>
	<polygon points="219.151,418.492 188.312,418.363 188.312,320.857 94.892,273.477 108.881,246.096 219.151,302.019 	"/>
	<polygon points="340.042,418.749 370.882,418.621 370.882,320.857 464.3,273.477 450.311,246.096 340.042,302.019 	"/>
	<g>
		<path d="M273.268,418h-13c0-16,9.111-24.572,16.431-31.121c5.761-5.155,9.021-8.297,9.021-13.484
			c0-7.995-4.236-12.179-11.147-18.364c-6.373-5.704-14.305-12.796-14.305-25.104c0-13.415,8.158-19.938,14.713-25.182
			c6.234-4.988,10.739-8.59,10.739-17.332c0-10.814-21.948-27.02-55.914-41.287l5.034-11.985
			c29.142,12.24,63.88,31.419,63.88,53.273c0,14.99-8.66,21.918-15.618,27.485c-6.462,5.169-9.834,8.186-9.834,15.034
			c0,6.194,3.604,9.722,9.974,15.423c6.896,6.172,15.478,13.853,15.478,28.065c0,11.252-7.094,17.546-13.353,23.146
			C278.875,402.375,273.268,407,273.268,418z"/>
		<path d="M298.72,418.276l-13-0.083c0.066-10.325-5.652-15.656-12.272-21.829c-6.178-5.759-13.18-12.288-13.18-22.943
			c0-14.147,8.511-21.659,15.351-27.695c6.452-5.694,10.102-9.235,10.102-15.792c0-6.848-3.372-9.865-9.834-15.034
			c-6.958-5.567-15.618-12.495-15.618-27.485c0-17.545,21.492-35.469,63.879-53.273l5.034,11.985
			c-41.225,17.316-55.914,32.682-55.914,41.288c0,8.742,4.505,12.346,10.739,17.333c6.555,5.244,14.713,11.771,14.713,25.186
			c0,12.742-8.04,19.838-14.499,25.539c-6.791,5.994-10.953,10.067-10.953,17.949c0,4.77,3.268,8.049,9.044,13.435
			C289.668,393.714,298.822,402.249,298.72,418.276z"/>
	</g>
	<g>
		<g>
			<path d="M151.465,451.6h3.372v20.224h-3.372V451.6z"/>
		</g>
		<g>
			<path d="M166.609,451.6h3.238l5.09,10.873h0.065V451.6h3.369v20.224h-3.171l-5.156-10.838h-0.067v10.838h-3.369V451.6z"/>
		</g>
		<g>
			<path d="M190.15,451.6h3.372v20.224h-3.372V451.6z"/>
		</g>
		<g>
			<path d="M207.641,454.773h-3.899V451.6h11.169v3.173h-3.899v17.051h-3.371V454.773z"/>
		</g>
		<g>
			<path d="M225.134,451.6h3.372v20.224h-3.372V451.6z"/>
		</g>
		<g>
			<path d="M244.145,451.6h2.808l5.256,20.224h-3.373l-0.99-5.057h-4.594l-0.99,5.057h-3.372L244.145,451.6z M245.566,458.373H245.5
				l-1.654,5.221h3.372L245.566,458.373z"/>
		</g>
		<g>
			<path d="M262.893,454.773h-3.899V451.6h11.17v3.173h-3.9v17.051h-3.371V454.773z"/>
		</g>
		<g>
			<path d="M280.387,451.6h3.37v20.224h-3.37V451.6z"/>
		</g>
		<g>
			<path d="M302.271,471.824h-2.977l-4.791-20.224h3.571l2.676,13.119h0.067l2.705-13.119h3.571L302.271,471.824z"/>
		</g>
		<g>
			<path d="M317.749,451.6h10.044v3.173h-6.676v5.84h5.819v3.174h-5.819v4.664h6.676v3.373h-10.044V451.6z"/>
		</g>
		<g>
			<path d="M353.396,451.6h10.046v3.173h-6.676v6.15h5.816v3.172h-5.816v7.729h-3.37V451.6z"/>
		</g>
		<g>
			<path d="M385.161,466.533c0,3.074-2.444,5.488-5.449,5.488c-3.011,0-5.453-2.414-5.453-5.488V451.6h3.37v14.603
				c0,1.654,0.895,2.447,2.083,2.447c1.188,0,2.079-0.793,2.079-2.447V451.6h3.37V466.533z M375.544,446.258h2.979v3.37h-2.979
				V446.258z M380.899,446.258h2.979v3.37h-2.979V446.258z"/>
		</g>
		<g>
			<path d="M396.972,451.6h5.419c4.003,0,5.95,2.345,5.95,6.906c0,2.713-0.758,4.695-2.908,5.883l3.637,7.436h-3.571l-3.14-6.74
				h-2.015v6.74h-3.372V451.6z M400.344,462.111h1.917c2.346,0,2.71-1.324,2.71-3.67c0-2.381-0.398-3.668-2.876-3.668h-1.751
				V462.111z"/>
		</g>
	</g>
</g>
</svg>
