<?xml version="1.0" encoding="utf-8"?>
<!-- Generator: Adobe Illustrator 15.1.0, SVG Export Plug-In . SVG Version: 6.00 Build 0)  -->
<!DOCTYPE svg PUBLIC "-//W3C//DTD SVG 1.1//EN" "http://www.w3.org/Graphics/SVG/1.1/DTD/svg11.dtd">
<svg version="1.1" id="Layer_1_copy" xmlns="http://www.w3.org/2000/svg" xmlns:xlink="http://www.w3.org/1999/xlink" x="0px"
	 y="0px" width="2232px" height="464px" viewBox="0 0 2232 464" enable-background="new 0 0 2232 464" xml:space="preserve">
<g display="none">
	<path display="inline" fill="none" stroke="#000000" stroke-width="13" stroke-miterlimit="10" d="M227.323,240.134
		c12.208,5.127,59.897,26.049,59.897,47.28c0,23.182-25.452,21.437-25.452,42.519c0,19.4,25.452,21.549,25.452,43.488
		c0,18.16-25.452,19.579-25.452,44.685"/>
	<path display="inline" fill="none" stroke="#000000" stroke-width="13" stroke-miterlimit="10" d="M321.664,240.134
		c-12.207,5.127-59.896,25.569-59.896,47.28c0,23.182,25.452,21.437,25.452,42.519c0,20.066-25.452,21.549-25.452,43.488
		c0,17.16,25.607,20.582,25.452,44.813"/>
</g>
<g>
	<g>
		<g>
			<path d="M574.311,213.59h29.161l45.813,117.014l0.593,10.617V213.59h30.351v201.2h-28.561l-46.411-116.716h-0.597V414.79h-30.35
				V213.59z"/>
		</g>
		<g>
			<path d="M737.108,213.59h90.449v28.56h-60.099v62.183h52.362v28.559h-52.362v51.576h60.099v30.323h-90.449V213.59z"/>
		</g>
		<g>
			<path d="M896.634,242.149h-35.106v-28.56h100.56v28.56h-35.107V414.79h-30.346V242.149z"/>
		</g>
		<g>
			<path d="M995.16,388.021l57.128-145.872h-54.152v-28.56h87.18v24.092l-58.317,148.558h58.317v28.55H995.16V388.021z"/>
		</g>
		<g>
			<path d="M1133.56,213.59h90.453v28.56h-60.094v64.254h52.361v28.578h-52.361v79.809h-30.359V213.59z"/>
		</g>
		<g>
			<path d="M1273.157,213.59h48.789c36.003,0,53.561,21.135,53.561,62.184c0,24.399-6.846,42.242-26.19,52.958l32.733,86.058
				h-32.127l-28.27-79.809h-18.15v79.809h-30.346V213.59z M1303.503,308.212h17.259c21.121,0,24.391-11.919,24.391-33.045
				c0-21.415-3.567-33.018-25.887-33.018h-15.763V308.212z"/>
		</g>
		<g>
			<path d="M1429.396,213.59h90.457v28.56h-60.09v62.183h52.366v28.559h-52.366v51.576h60.09v30.323h-90.457V213.59z"/>
		</g>
		<g>
			<path d="M1569.887,213.59h30.346v201.2h-30.346V213.59z"/>
		</g>
		<g>
			<path d="M1659.212,213.59h30.342v90.743h37.48V213.59h30.35v201.2h-30.35v-83.68h-37.48v83.68h-30.342V213.59z"/>
		</g>
		<g>
			<path d="M1815.464,213.59h90.444v28.56h-60.109v62.183h52.368v28.559h-52.368v51.576h60.109v30.323h-90.444V213.59z"/>
		</g>
		<g>
			<path d="M1955.938,213.59h30.355v201.2h-30.355V213.59z"/>
		</g>
		<g>
			<path d="M2065.176,242.149h-35.105v-28.56h100.559v28.56h-35.098V414.79h-30.355V242.149z"/>
		</g>
	</g>
	<g>
		<path d="M227.717,245.396l1.135-2.486c0,0-1.757-1.755-4.638-4.567l-2.017,4.417l-0.661,1.449l-3.506-1.599l0.675-1.48
			l2.572-5.636c-1.125-1.086-2.341-2.256-3.643-3.499l-3.26,7.142l-0.682,1.494l-3.509-1.602l0.678-1.486l3.815-8.356
			c-1.181-1.114-2.4-2.261-3.661-3.436l-4.493,9.843l-0.505,1.109l-3.507-1.601l0.491-1.074l5.037-11.037
			c-1.215-1.119-2.447-2.246-3.695-3.378l-5.722,12.54l-0.443,0.971l-3.507-1.597l0.381-0.837l6.287-13.778
			c-1.245-1.112-2.491-2.214-3.736-3.301l-6.977,15.293l-0.292,0.642l-3.508-1.6l0.259-0.566l7.478-16.394
			c-7.803-6.665-15.141-12.32-19.737-14.417c-14.11-6.438-87.036-39.715-87.036-39.715l-0.55,1.205l-1.169-0.533l-6.967,15.267
			l-2.008-0.883l-8.025,18.377l1.693,0.784l-6.791,14.88l1.17,0.535l-0.687,1.504c0,0,72.627,33.14,87.032,39.713
			c4.67,2.131,13.709,3.998,23.786,5.549L183,236.337l3.506,1.601l-7.26,15.906c1.635,0.233,3.281,0.458,4.933,0.676l6.641-14.551
			l0.022-0.05l3.509,1.6l-0.252,0.552l-5.914,12.958c1.671,0.208,3.329,0.404,4.968,0.592l5.116-11.212l0.416-0.911l3.507,1.597
			l-0.511,1.12l-4.498,9.856c1.729,0.188,3.408,0.364,5.037,0.531l3.733-8.182l0.607-1.33l3.51,1.604l-0.671,1.469l-3.123,6.842
			c1.788,0.173,3.466,0.33,5.021,0.471l2.364-5.18l0.742-1.626l3.506,1.596l-0.797,1.747l-1.743,3.822
			c3.98,0.34,6.437,0.519,6.437,0.519l0.746-1.638 M70.873,189.539l6.746-15.743l2.843,1.342l0.006-0.013l0.325,0.158l10.784,5.258
			l36.487,17.784l0.672,0.329l-5.822,13.733L70.873,189.539z M138.766,237.257l-71.387-32.575l0.71-1.556l10.91,4.979l1.068-2.338
			l-10.911-4.979l1.46-3.2l10.911,4.977l1.067-2.339l-10.911-4.977l1.387-3.037l10.91,4.979l0.296-0.65l39.712,18.837l8.111-18.367
			l-39.964-17.69l0.359-0.786l-10.913-4.978l1.461-3.203l10.914,4.979l1.068-2.339l-10.915-4.979l1.461-3.201l10.913,4.981
			l1.066-2.339l-10.911-4.98l0.704-1.543l71.387,32.576L138.766,237.257z"/>
		<g>
			<path d="M320.391,256.716l0.748,1.638c0,0,2.455-0.179,6.435-0.519l-1.741-3.822l-0.798-1.747l3.508-1.596l0.739,1.626
				l2.363,5.18c1.557-0.141,3.232-0.297,5.024-0.471l-3.121-6.842l-0.673-1.469l3.508-1.604l0.607,1.33l3.734,8.182
				c1.626-0.167,3.309-0.343,5.035-0.531l-4.498-9.856l-0.507-1.12l3.504-1.597l0.416,0.911l5.116,11.212
				c1.641-0.188,3.297-0.385,4.969-0.592l-5.912-12.958l-0.252-0.552l3.508-1.6l0.021,0.05l6.642,14.551
				c1.65-0.218,3.297-0.442,4.934-0.676l-7.263-15.906l3.508-1.601l7.726,16.917c10.074-1.551,19.113-3.418,23.783-5.549
				c14.405-6.573,87.033-39.713,87.033-39.713l-0.688-1.504l1.17-0.535l-6.786-14.88l1.69-0.784l-8.025-18.377l-2.008,0.883
				l-6.967-15.267l-1.17,0.533l-0.548-1.205c0,0-72.929,33.277-87.038,39.715c-4.593,2.097-11.932,7.752-19.737,14.417l7.479,16.394
				l0.257,0.566l-3.505,1.6l-0.296-0.642l-6.977-15.293c-1.244,1.087-2.49,2.188-3.734,3.301l6.289,13.778l0.382,0.837l-3.508,1.597
				l-0.443-0.971l-5.721-12.54c-1.251,1.132-2.48,2.259-3.695,3.378l5.034,11.037l0.492,1.074l-3.508,1.601l-0.508-1.109
				l-4.493-9.843c-1.259,1.175-2.479,2.322-3.658,3.436l3.815,8.356l0.677,1.486l-3.509,1.602l-0.683-1.494l-3.257-7.142
				c-1.301,1.243-2.52,2.413-3.645,3.499l2.575,5.636l0.673,1.48l-3.504,1.599l-0.663-1.449l-2.017-4.417
				c-2.883,2.812-4.639,4.567-4.639,4.567l1.134,2.486 M451.364,180.542l10.788-5.258l0.32-0.158l0.011,0.013l2.842-1.342
				l6.745,15.743l-52.042,22.849l-5.822-13.733l0.673-0.329 M404.176,237.257l-19.962-43.75l71.388-32.576l0.703,1.543l-10.908,4.98
				l1.065,2.339l10.912-4.981l1.461,3.201l-10.913,4.979l1.063,2.339l10.918-4.979l1.461,3.203l-10.913,4.978l0.357,0.786
				l-39.966,17.69l8.112,18.367l39.714-18.837l0.296,0.65l10.907-4.979l1.391,3.037l-10.913,4.977l1.064,2.339l10.913-4.977
				l1.461,3.2l-10.913,4.979l1.068,2.338l10.913-4.979l0.708,1.556"/>
		</g>
		<g>
			<g>
				<defs>
					<polygon id="SVGID_1_" points="455.371,-39 269.317,221.484 83.265,-39 					"/>
				</defs>
				<clipPath id="SVGID_2_">
					<use xlink:href="#SVGID_1_"  overflow="visible"/>
				</clipPath>
				<g clip-path="url(#SVGID_2_)">
					<g>
						<path d="M269.194,310.793c-50.219,0-91.074-40.855-91.074-91.072c0-50.215,40.854-91.069,91.074-91.069
							c50.215,0,91.066,40.854,91.066,91.069C360.261,269.938,319.409,310.793,269.194,310.793z M269.194,156.922
							c-34.631,0-62.804,28.172-62.804,62.799c0,34.628,28.173,62.801,62.804,62.801c34.627,0,62.797-28.173,62.797-62.801
							C331.991,185.094,303.821,156.922,269.194,156.922z"/>
						<path d="M269.197,361.846c-78.371,0-142.13-63.756-142.13-142.125c0-78.367,63.759-142.123,142.13-142.123
							c78.364,0,142.118,63.755,142.118,142.123C411.314,298.09,347.561,361.846,269.197,361.846z M269.197,105.869
							c-62.783,0-113.86,51.074-113.86,113.853c0,62.781,51.077,113.855,113.86,113.855c62.777,0,113.847-51.075,113.847-113.855
							C383.044,156.942,331.974,105.869,269.197,105.869z"/>
						<path d="M269.197,412.899c-106.521,0-193.184-86.659-193.184-193.178c0-106.518,86.662-193.176,193.184-193.176
							c106.514,0,193.171,86.658,193.171,193.176C462.368,326.24,375.711,412.899,269.197,412.899z M269.197,54.815
							c-90.933,0-164.914,73.977-164.914,164.906c0,90.931,73.98,164.909,164.914,164.909c90.926,0,164.902-73.978,164.902-164.909
							C434.099,128.792,360.123,54.815,269.197,54.815z"/>
					</g>
				</g>
			</g>
			<path d="M291.378,219.096c0,11.716-9.497,21.211-21.215,21.211c-11.71,0-21.21-9.496-21.21-21.211
				c0-11.715,9.5-21.212,21.21-21.212C281.881,197.884,291.378,207.381,291.378,219.096z"/>
		</g>
		<polygon points="211.151,428.492 180.312,428.363 180.312,330.857 86.892,283.477 100.881,256.096 211.151,312.019 		"/>
		<polygon points="332.042,428.749 362.882,428.621 362.882,330.857 456.3,283.477 442.311,256.096 332.042,312.019 		"/>
		<g>
			<path d="M265.268,428h-13c0-16,9.111-24.572,16.431-31.121c5.761-5.155,9.021-8.297,9.021-13.484
				c0-7.995-4.236-12.179-11.147-18.364c-6.373-5.704-14.305-12.796-14.305-25.104c0-13.415,8.158-19.938,14.713-25.182
				c6.234-4.988,10.739-8.59,10.739-17.332c0-10.814-21.948-27.02-55.914-41.287l5.034-11.985
				c29.142,12.24,63.88,31.419,63.88,53.273c0,14.99-8.66,21.918-15.618,27.485c-6.462,5.169-9.834,8.186-9.834,15.034
				c0,6.194,3.604,9.722,9.974,15.423c6.896,6.172,15.478,13.853,15.478,28.065c0,11.252-7.094,17.546-13.353,23.146
				C270.875,412.375,265.268,417,265.268,428z"/>
			<path d="M290.72,428.276l-13-0.083c0.066-10.325-5.652-15.656-12.272-21.829c-6.178-5.759-13.18-12.288-13.18-22.943
				c0-14.147,8.511-21.659,15.351-27.695c6.452-5.694,10.102-9.235,10.102-15.792c0-6.848-3.372-9.865-9.834-15.034
				c-6.958-5.567-15.618-12.495-15.618-27.485c0-17.545,21.492-35.469,63.879-53.273l5.034,11.985
				c-41.225,17.316-55.914,32.682-55.914,41.288c0,8.742,4.505,12.346,10.739,17.333c6.555,5.244,14.713,11.771,14.713,25.186
				c0,12.742-8.04,19.838-14.499,25.539c-6.791,5.994-10.953,10.067-10.953,17.949c0,4.77,3.268,8.049,9.044,13.435
				C281.668,403.714,290.822,412.249,290.72,428.276z"/>
		</g>
	</g>
	<g>
		<g>
			<path d="M572.007,65.374h17.74V171.77h-17.74V65.374z"/>
		</g>
		<g>
			<path d="M621.681,65.374h17.035l26.777,57.199h0.345V65.374h17.724V171.77h-16.681l-27.127-57.017h-0.35v57.017h-17.724V65.374z"
				/>
		</g>
		<g>
			<path d="M715.526,65.374h17.74V171.77h-17.74V65.374z"/>
		</g>
		<g>
			<path d="M777.541,82.067h-20.509V65.374h58.753v16.694h-20.51v89.703h-17.734V82.067z"/>
		</g>
		<g>
			<path d="M839.569,65.374h17.741V171.77h-17.741V65.374z"/>
		</g>
		<g>
			<path d="M909.583,65.374h14.775L952.01,171.77h-17.746l-5.209-26.602h-24.168l-5.209,26.602h-17.739L909.583,65.374z
				 M917.063,101.005h-0.35l-8.697,27.466h17.74L917.063,101.005z"/>
		</g>
		<g>
			<path d="M978.215,82.067h-20.509V65.374h58.764v16.694h-20.521v89.703h-17.734V82.067z"/>
		</g>
		<g>
			<path d="M1040.25,65.374h17.729V171.77h-17.729V65.374z"/>
		</g>
		<g>
			<path d="M1125.382,171.77h-15.659l-25.204-106.396h18.788l14.077,69.016h0.354l14.231-69.016h18.789L1125.382,171.77z"/>
		</g>
		<g>
			<path d="M1176.809,65.374h52.84v16.694h-35.121v30.723h30.61v16.697h-30.61v24.537h35.121v17.746h-52.84V65.374z"/>
		</g>
		<g>
			<path d="M1304.34,65.374h52.851v16.694h-35.121v32.357h30.6v16.687h-30.6v40.659h-17.729V65.374z"/>
		</g>
		<g>
			<path d="M1441.455,143.934c0,16.174-12.859,28.874-28.667,28.874c-15.84,0-28.688-12.7-28.688-28.874V65.374h17.729v76.825
				c0,8.703,4.706,12.874,10.959,12.874c6.247,0,10.938-4.171,10.938-12.874V65.374h17.729V143.934z M1390.86,37.271h15.675V55
				h-15.675V37.271z M1419.035,37.271h15.675V55h-15.675V37.271z"/>
		</g>
		<g>
			<path d="M1473.589,65.374h28.509c21.059,0,31.304,12.335,31.304,36.331c0,14.271-3.987,24.701-15.3,30.948l19.133,39.118h-18.789
				l-16.517-35.459h-10.599v35.459h-17.741V65.374z M1491.33,120.671h10.084c12.341,0,14.257-6.966,14.257-19.307
				c0-12.526-2.096-19.297-15.131-19.297h-9.21V120.671z"/>
		</g>
	</g>
</g>
</svg>
