<?xml version="1.0" encoding="utf-8"?>
<!-- Generator: Adobe Illustrator 15.1.0, SVG Export Plug-In . SVG Version: 6.00 Build 0)  -->
<!DOCTYPE svg PUBLIC "-//W3C//DTD SVG 1.1//EN" "http://www.w3.org/Graphics/SVG/1.1/DTD/svg11.dtd">
<svg version="1.1" id="Layer_1" xmlns="http://www.w3.org/2000/svg" xmlns:xlink="http://www.w3.org/1999/xlink" x="0px" y="0px"
	 width="99.574px" height="70px" viewBox="0 0 99.574 70" enable-background="new 0 0 99.574 70" xml:space="preserve">
<path fill="#FFFFFF" d="M46.178,30.797V17.002h-3.936v-4.973h3.936V7.786c0-3.332,2.322-6.386,7.672-6.386
	c2.174,0,3.771,0.181,3.771,0.181l-0.125,4.651c0,0-1.64-0.014-3.418-0.014c-1.933,0-2.24,0.812-2.24,2.184v3.627h5.81l-0.254,4.973
	h-5.556v13.795H46.178z"/>
<path fill="#FFFFFF" d="M32.441,7.016c-1.178,0.476-2.449,0.798-3.795,0.938c1.373-0.743,2.423-1.918,2.912-3.32
	c-1.273,0.686-2.688,1.191-4.201,1.457C26.153,4.929,24.445,4.2,22.542,4.2c-3.656,0-6.609,2.689-6.609,6.008
	c0,0.462,0.056,0.924,0.168,1.358C10.612,11.328,5.737,8.934,2.489,5.292c-0.575,0.883-0.897,1.92-0.897,3.026
	c0,2.087,1.163,3.923,2.941,5c-1.092-0.028-2.1-0.308-2.997-0.756v0.084c0,2.914,2.283,5.338,5.294,5.896
	c-0.546,0.126-1.134,0.209-1.737,0.209c-0.42,0-0.839-0.042-1.246-0.112c0.84,2.38,3.291,4.116,6.176,4.172
	c-2.254,1.611-5.11,2.578-8.206,2.578c-0.532,0-1.05-0.028-1.568-0.085C3.163,27,6.636,27.995,10.375,27.995
	c12.155,0,18.794-9.16,18.794-17.101l-0.014-0.77C30.437,9.27,31.558,8.221,32.441,7.016z"/>
<path fill="#FFFF00" d="M46.178,65.807V52.014h-3.936v-4.972h3.936v-4.245c0-3.333,2.322-6.398,7.672-6.398
	c2.174,0,3.771,0.195,3.771,0.195l-0.125,4.635c0,0-1.64-0.015-3.418-0.015c-1.933,0-2.24,0.826-2.24,2.199v3.629h5.81l-0.254,4.972
	h-5.556v13.793H46.178z"/>
<path fill="#FFFF00" d="M32.441,42.014c-1.178,0.488-2.449,0.812-3.795,0.951c1.373-0.742,2.423-1.918,2.912-3.32
	c-1.273,0.687-2.688,1.194-4.201,1.459c-1.204-1.176-2.912-1.902-4.815-1.902c-3.656,0-6.609,2.688-6.609,6.008
	c0,0.477,0.056,0.938,0.168,1.371c-5.488-0.253-10.363-2.646-13.611-6.271c-0.575,0.883-0.897,1.916-0.897,3.024
	c0,2.071,1.163,3.922,2.941,5c-1.092-0.043-2.1-0.31-2.997-0.757v0.07c0,2.912,2.283,5.35,5.294,5.896
	c-0.546,0.144-1.134,0.212-1.737,0.212c-0.42,0-0.839-0.029-1.246-0.1c0.84,2.383,3.291,4.115,6.176,4.173
	c-2.254,1.61-5.11,2.563-8.206,2.563c-0.532,0-1.05-0.031-1.568-0.084c2.913,1.707,6.386,2.702,10.125,2.702
	c12.155,0,18.794-9.159,18.794-17.099l-0.014-0.771C30.437,44.283,31.558,43.23,32.441,42.014z"/>
</svg>
